<svg width="44" height="44" viewBox="0 0 44 44" fill="none" xmlns="http://www.w3.org/2000/svg">
<rect width="44" height="44" rx="22" fill="#FAAD1B"/>
<path d="M12.6667 34C11.9333 34 11.3056 33.7389 10.7833 33.2167C10.2611 32.6944 10 32.0667 10 31.3333V12.6667C10 11.9333 10.2611 11.3056 10.7833 10.7833C11.3056 10.2611 11.9333 10 12.6667 10H31.3333C32.0667 10 32.6944 10.2611 33.2167 10.7833C33.7389 11.3056 34 11.9333 34 12.6667V31.3333C34 32.0667 33.7389 32.6944 33.2167 33.2167C32.6944 33.7389 32.0667 34 31.3333 34H12.6667ZM22 14C20.3111 14 18.8222 14.5889 17.5333 15.7667C16.2444 16.9444 15.6 18.5444 15.6 20.5667C15.6 22.1889 16.2333 23.7889 17.5 25.3667C18.7667 26.9444 19.9667 28.2333 21.1 29.2333C21.2333 29.3444 21.3778 29.4278 21.5333 29.4833C21.6889 29.5389 21.8444 29.5667 22 29.5667C22.1556 29.5667 22.3111 29.5389 22.4667 29.4833C22.6222 29.4278 22.7667 29.3444 22.9 29.2333C24.0333 28.2333 25.2333 26.9444 26.5 25.3667C27.7667 23.7889 28.4 22.1889 28.4 20.5667C28.4 18.5444 27.7556 16.9444 26.4667 15.7667C25.1778 14.5889 23.6889 14 22 14ZM22 22.3333C21.5333 22.3333 21.1389 22.1722 20.8167 21.85C20.4944 21.5278 20.3333 21.1333 20.3333 20.6667C20.3333 20.2 20.4944 19.8056 20.8167 19.4833C21.1389 19.1611 21.5333 19 22 19C22.4667 19 22.8611 19.1611 23.1833 19.4833C23.5056 19.8056 23.6667 20.2 23.6667 20.6667C23.6667 21.1333 23.5056 21.5278 23.1833 21.85C22.8611 22.1722 22.4667 22.3333 22 22.3333Z" fill="white"/>
</svg>
