<svg width="44" height="44" viewBox="0 0 44 44" fill="none" xmlns="http://www.w3.org/2000/svg">
<rect width="44" height="44" rx="22" fill="#FAAD1B"/>
<g clip-path="url(#clip0_5529_128)">
<path d="M18.257 20.709C19.357 22.8708 21.1292 24.6354 23.291 25.743L24.9716 24.0625C25.1778 23.8562 25.4834 23.7875 25.7507 23.8791C26.6063 24.1618 27.5306 24.3146 28.4778 24.3146C28.8979 24.3146 29.2417 24.6583 29.2417 25.0784V27.7444C29.2417 28.1646 28.8979 28.5083 28.4778 28.5083C21.3049 28.5083 15.4917 22.6951 15.4917 15.5222C15.4917 15.1021 15.8354 14.7583 16.2556 14.7583H18.9292C19.3493 14.7583 19.6931 15.1021 19.6931 15.5222C19.6931 16.4771 19.8459 17.3937 20.1285 18.2493C20.2125 18.5166 20.1514 18.8146 19.9375 19.0284L18.257 20.709Z" fill="white"/>
</g>
<defs>
<clipPath id="clip0_5529_128">
<rect width="18.3333" height="18.3333" fill="white" transform="translate(13.2 12.4667)"/>
</clipPath>
</defs>
</svg>
